<svg width="1969" height="1969" viewBox="0 0 1969 1969" fill="none" xmlns="http://www.w3.org/2000/svg">
<path d="M984.5 0C1528.22 0 1969 440.776 1969 984.5C1969 1528.22 1528.22 1969 984.5 1969C440.776 1969 0 1528.22 0 984.5C0 440.776 440.776 0 984.5 0ZM845.963 322.733C810.174 315.104 769.302 317.301 746.354 347.121C723.405 376.942 731.75 417.013 748.291 449.654C765.752 484.109 796.653 520.018 836.187 550.441C858.917 567.933 882.558 582.119 905.625 592.561V694.053C865.055 699.882 829.99 709.321 802.93 719.178C757.73 602.316 721.858 526.752 691.722 479.427C660.399 430.238 629.3 402.003 592.182 402.003C580.21 402.003 570.43 407.938 565.494 411.225C559.285 415.359 552.935 420.79 546.697 426.79C534.117 438.891 519.4 455.831 503.514 476.419C471.616 517.758 433.248 576.096 395.629 645.54C320.599 784.042 246.803 969.945 235.103 1156.26L235 1157.91L235.077 1159.55C239.624 1256.4 258.863 1336.93 294.531 1402.92C330.4 1469.28 382.024 1519.33 448.582 1556.23C579.866 1629 769.358 1650.45 1012.43 1650.45C1238.24 1650.45 1418.61 1607.62 1543.13 1524.04C1669.23 1439.39 1735.79 1314.32 1734.45 1157.89C1733.13 1004.14 1661.18 817.416 1584.43 671.294C1545.79 597.726 1505.16 533.004 1470.12 486.277C1452.67 463.008 1436.07 443.487 1421.34 429.464C1414.01 422.485 1406.47 416.213 1398.94 411.504C1392.23 407.307 1382.14 402.166 1370.33 402.007L1369.76 402.003C1354.29 402.003 1340.87 408.223 1330.17 415.824C1319.45 423.434 1309.73 433.617 1300.96 444.725C1283.44 466.919 1266.52 496.875 1250.61 529.637C1222.98 586.553 1196.28 656.448 1173.32 719.637C1141.25 708.206 1109.51 700.355 1078.65 695.348V585.427C1096.94 575.977 1115.41 564.259 1133.33 550.467C1172.86 520.044 1203.76 484.135 1221.22 449.68C1237.76 417.038 1246.11 376.967 1223.16 347.146C1200.21 317.326 1159.34 315.129 1123.55 322.759C1085.77 330.812 1043.15 351.486 1003.61 381.909C997.076 386.941 990.789 392.111 984.771 397.387C978.745 392.103 972.449 386.924 965.9 381.884C926.367 351.461 883.741 330.787 845.963 322.733ZM1367.9 462.873C1370.72 464.747 1374.75 467.949 1379.97 472.919C1391.33 483.734 1405.68 500.351 1422.12 522.275C1454.87 565.938 1493.83 627.837 1531.31 699.194C1606.8 842.923 1673.26 1019.27 1674.45 1158.4C1675.62 1294.85 1618.88 1400.93 1509.69 1474.22C1398.92 1548.57 1232.03 1590.45 1012.43 1590.45C769.591 1590.45 594.197 1568.34 477.67 1503.75C420.323 1471.96 377.308 1429.88 347.314 1374.39C317.303 1318.86 299.49 1248.33 295.092 1158.38C306.372 984.581 375.803 808.103 448.386 674.119C484.686 607.11 521.34 551.534 551.017 513.073C565.917 493.762 578.627 479.329 588.291 470.033C591.661 466.792 594.362 464.466 596.4 462.878C603.313 465.406 617.83 475.093 641.112 511.654C670.207 557.345 707.705 636.64 757.887 769.375L769.52 800.146L799.091 785.734C856.225 757.891 1016.09 716.986 1179.36 786.376L1208.61 798.807L1219.34 768.89C1244.54 698.576 1274.25 618.332 1304.59 555.842C1319.82 524.462 1334.52 499.049 1348.05 481.911C1354.81 473.353 1360.49 467.879 1364.9 464.747C1366.12 463.88 1367.12 463.284 1367.9 462.873ZM1105.32 1374.4C1091.73 1374.4 1080.23 1383.4 1076.48 1395.78C1050.71 1441.79 1034.14 1439.51 1014.15 1401.68C1012.71 1386.37 999.824 1374.4 984.143 1374.4C968.005 1374.4 954.828 1387.08 954.037 1403.02C934.362 1439.56 917.876 1441.24 892.421 1395.78C888.667 1383.4 877.174 1374.4 863.575 1374.4C846.928 1374.4 833.433 1387.89 833.433 1404.54C833.433 1409.65 834.705 1414.46 836.948 1418.67C849.298 1457.13 912.686 1533.9 984.143 1464.82V1464.58L984.757 1464.82C1056.21 1533.9 1119.6 1457.13 1131.95 1418.67C1134.19 1414.46 1135.47 1409.65 1135.47 1404.54C1135.47 1387.89 1121.97 1374.4 1105.32 1374.4ZM677.188 865.061C535.18 865.061 420.06 980.181 420.06 1122.19C420.06 1263.64 534.282 1378.42 675.524 1379.31L677.188 1379.32C818.641 1379.32 933.416 1265.09 934.311 1123.85L934.316 1122.19C934.316 980.181 819.195 865.061 677.188 865.061ZM1292.33 865.061C1150.32 865.061 1035.2 980.181 1035.2 1122.19C1035.2 1263.64 1149.42 1378.42 1290.66 1379.31L1292.33 1379.32C1433.78 1379.32 1548.55 1265.09 1549.45 1123.85L1549.46 1122.19C1549.45 980.181 1434.33 865.061 1292.33 865.061ZM677.188 915.061C791.581 915.061 884.316 1007.8 884.316 1122.19C884.316 1236.58 791.581 1329.32 677.188 1329.32C562.794 1329.32 470.06 1236.58 470.06 1122.19C470.06 1007.8 562.794 915.061 677.188 915.061ZM1292.33 915.061C1406.72 915.061 1499.45 1007.79 1499.46 1122.19C1499.45 1236.58 1406.72 1329.32 1292.33 1329.32C1177.93 1329.32 1085.2 1236.58 1085.2 1122.19C1085.2 1007.8 1177.93 915.061 1292.33 915.061ZM785.979 377.615C790.429 371.832 804.556 365.03 835.538 371.635C864.531 377.815 900.45 394.608 935.406 421.509C946.985 430.42 957.581 439.767 967.067 449.279L984.768 467.027L1002.47 449.281C1011.95 439.777 1022.54 430.438 1034.11 421.534C1069.06 394.633 1104.98 377.841 1133.98 371.66C1164.96 365.056 1179.08 371.858 1183.54 377.641C1187.99 383.424 1190.94 398.822 1176.62 427.078C1163.22 453.521 1137.79 483.941 1102.83 510.842C1082.96 526.136 1062.63 538.263 1043.34 547.005L1028.65 553.657V689.548C1003.31 687.758 978.852 687.747 955.625 689.06V558.693L939.533 552.557C916.475 543.763 891.258 529.73 866.681 510.816C831.724 483.916 806.292 453.496 792.892 427.053C778.573 398.797 781.528 383.399 785.979 377.615ZM1082.13 465.512C1077.53 458.619 1068.22 456.756 1061.33 461.352L988.448 509.937L915.57 461.352C908.677 456.756 899.365 458.619 894.77 465.512C890.174 472.405 892.037 481.717 898.93 486.312L980.128 540.445L988.448 545.992L1077.97 486.312C1084.86 481.717 1086.72 472.404 1082.13 465.512Z" fill="white"/>
</svg>
