<svg width="640" height="640" xmlns="http://www.w3.org/2000/svg">
 <!--!Font Awesome Free 7.1.0 by @fontawesome - https://fontawesome.com License - https://fontawesome.com/license/free Copyright 2025 Fonticons, Inc.-->

 <g>
  <title>Layer 1</title>
  <path fill="#ffffff" id="svg_1" d="m125.4,128c-33.9,0 -61.4,27.5 -61.4,61.4c0,0.9 0,1.7 0.1,2.6l-0.1,0l0,256c0,35.3 28.7,64 64,64l384,0c35.3,0 64,-28.7 64,-64l0,-256l-0.1,0c0,-0.9 0.1,-1.7 0.1,-2.6c0,-33.9 -27.5,-61.4 -61.4,-61.4l-389.2,0zm402.6,128.3l0,191.7c0,8.8 -7.2,16 -16,16l-384,0c-8.8,0 -16,-7.2 -16,-16l0,-191.7l154.8,117.4c31.4,23.9 74.9,23.9 106.4,0l154.8,-117.4zm-416,-66.9c0,-7.4 6,-13.4 13.4,-13.4l389.2,0c7.4,0 13.4,6 13.4,13.4c0,4.2 -2,8.2 -5.3,10.7l-178.5,135.4c-14.3,10.8 -34.1,10.8 -48.4,0l-178.5,-135.4c-3.3,-2.5 -5.3,-6.5 -5.3,-10.7"/>
 </g>
</svg>